<svg xmlns="http://www.w3.org/2000/svg" viewBox="0 0 920 420" width="920" height="420">
  <defs>
    <style>
      @import url('https://fonts.googleapis.com/css2?family=DM+Sans:wght@400;500;600;700&amp;display=swap');
      text { font-family: 'DM Sans', -apple-system, BlinkMacSystemFont, sans-serif; }
    </style>
    <filter id="s4" x="-2%" y="-2%" width="104%" height="108%">
      <feDropShadow dx="0" dy="1" stdDeviation="3" flood-opacity="0.06"/>
    </filter>
    <marker id="flowArr" markerWidth="10" markerHeight="7" refX="10" refY="3.5" orient="auto">
      <path d="M0,0 L10,3.5 L0,7" fill="#1a5f7a"/>
    </marker>
  </defs>

  <!-- Background -->
  <rect width="920" height="420" rx="12" fill="#fafaf8"/>
  <rect x="0" y="0" width="920" height="4" rx="2" fill="#1a5f7a"/>

  <!-- Title -->
  <text x="460" y="38" text-anchor="middle" font-size="18" font-weight="700" fill="#1a1a1a">From Problem to Approach to Result</text>
  <text x="460" y="58" text-anchor="middle" font-size="12" fill="#717171">How each strategic challenge maps to a technical solution and business outcome</text>

  <!-- ════ Column 1: PROBLEM ════ -->
  <g filter="url(#s4)">
    <rect x="30" y="80" width="260" height="300" rx="10" fill="white" stroke="#fca5a5" stroke-width="1.5"/>
  </g>
  <rect x="30" y="80" width="260" height="40" rx="10" fill="#991b1b"/>
  <rect x="30" y="100" width="260" height="20" fill="#991b1b"/>
  <text x="160" y="105" text-anchor="middle" font-size="14" font-weight="700" fill="white">PROBLEM</text>

  <!-- Problem items -->
  <rect x="46" y="132" width="228" height="50" rx="6" fill="#fef2f2"/>
  <circle cx="62" cy="151" r="6" fill="#dc2626" opacity="0.2"/>
  <text x="62" y="155" text-anchor="middle" font-size="9" fill="#991b1b">1</text>
  <text x="76" y="150" font-size="11" font-weight="600" fill="#1a1a1a">Regulatory deadlines</text>
  <text x="76" y="168" font-size="10" fill="#717171">EU Data Act, DPP mandates approaching</text>

  <rect x="46" y="192" width="228" height="50" rx="6" fill="#fef2f2"/>
  <circle cx="62" cy="211" r="6" fill="#dc2626" opacity="0.2"/>
  <text x="62" y="215" text-anchor="middle" font-size="9" fill="#991b1b">2</text>
  <text x="76" y="210" font-size="11" font-weight="600" fill="#1a1a1a">IP exposure risk</text>
  <text x="76" y="228" font-size="10" fill="#717171">Sharing data means losing control</text>

  <rect x="46" y="252" width="228" height="50" rx="6" fill="#fef2f2"/>
  <circle cx="62" cy="271" r="6" fill="#dc2626" opacity="0.2"/>
  <text x="62" y="275" text-anchor="middle" font-size="9" fill="#991b1b">3</text>
  <text x="76" y="270" font-size="11" font-weight="600" fill="#1a1a1a">No ecosystem infrastructure</text>
  <text x="76" y="288" font-size="10" fill="#717171">Point-to-point doesn't scale</text>

  <rect x="46" y="312" width="228" height="50" rx="6" fill="#fef2f2"/>
  <circle cx="62" cy="331" r="6" fill="#dc2626" opacity="0.2"/>
  <text x="62" y="335" text-anchor="middle" font-size="9" fill="#991b1b">4</text>
  <text x="76" y="330" font-size="11" font-weight="600" fill="#1a1a1a">SMEs cannot self-host</text>
  <text x="76" y="348" font-size="10" fill="#717171">Complexity excludes smaller partners</text>

  <!-- ════ Arrow 1→2 ════ -->
  <line x1="300" y1="230" x2="328" y2="230" stroke="#1a5f7a" stroke-width="2.5" marker-end="url(#flowArr)"/>

  <!-- ════ Column 2: APPROACH ════ -->
  <g filter="url(#s4)">
    <rect x="330" y="80" width="260" height="300" rx="10" fill="white" stroke="#93c5fd" stroke-width="1.5"/>
  </g>
  <rect x="330" y="80" width="260" height="40" rx="10" fill="#1a5f7a"/>
  <rect x="330" y="100" width="260" height="20" fill="#1a5f7a"/>
  <text x="460" y="105" text-anchor="middle" font-size="14" font-weight="700" fill="white">APPROACH</text>

  <rect x="346" y="132" width="228" height="50" rx="6" fill="#e8f1f5"/>
  <circle cx="362" cy="151" r="6" fill="#1a5f7a" opacity="0.2"/>
  <text x="362" y="155" text-anchor="middle" font-size="9" fill="#0e3d4f">1</text>
  <text x="376" y="150" font-size="11" font-weight="600" fill="#1a1a1a">Open protocols</text>
  <text x="376" y="168" font-size="10" fill="#717171">DCP · DSP · DPS — standards-based</text>

  <rect x="346" y="192" width="228" height="50" rx="6" fill="#e8f1f5"/>
  <circle cx="362" cy="211" r="6" fill="#1a5f7a" opacity="0.2"/>
  <text x="362" y="215" text-anchor="middle" font-size="9" fill="#0e3d4f">2</text>
  <text x="376" y="210" font-size="11" font-weight="600" fill="#1a1a1a">Cryptographic sovereignty</text>
  <text x="376" y="228" font-size="10" fill="#717171">Verifiable credentials, policy enforcement</text>

  <rect x="346" y="252" width="228" height="50" rx="6" fill="#e8f1f5"/>
  <circle cx="362" cy="271" r="6" fill="#1a5f7a" opacity="0.2"/>
  <text x="362" y="275" text-anchor="middle" font-size="9" fill="#0e3d4f">3</text>
  <text x="376" y="270" font-size="11" font-weight="600" fill="#1a1a1a">Multi-tenant EDC</text>
  <text x="376" y="288" font-size="10" fill="#717171">VPA + CFM — sub-linear scaling</text>

  <rect x="346" y="312" width="228" height="50" rx="6" fill="#e8f1f5"/>
  <circle cx="362" cy="331" r="6" fill="#1a5f7a" opacity="0.2"/>
  <text x="362" y="335" text-anchor="middle" font-size="9" fill="#0e3d4f">4</text>
  <text x="376" y="330" font-size="11" font-weight="600" fill="#1a1a1a">Decentralized governance</text>
  <text x="376" y="348" font-size="10" fill="#717171">DSGA defines rules, not operations</text>

  <!-- ════ Arrow 2→3 ════ -->
  <line x1="600" y1="230" x2="628" y2="230" stroke="#1a5f7a" stroke-width="2.5" marker-end="url(#flowArr)"/>

  <!-- ════ Column 3: RESULT ════ -->
  <g filter="url(#s4)">
    <rect x="630" y="80" width="260" height="300" rx="10" fill="white" stroke="#86efac" stroke-width="1.5"/>
  </g>
  <rect x="630" y="80" width="260" height="40" rx="10" fill="#047857"/>
  <rect x="630" y="100" width="260" height="20" fill="#047857"/>
  <text x="760" y="105" text-anchor="middle" font-size="14" font-weight="700" fill="white">RESULT</text>

  <rect x="646" y="132" width="228" height="50" rx="6" fill="#ecfdf5"/>
  <circle cx="662" cy="151" r="6" fill="#047857" opacity="0.2"/>
  <text x="662" y="155" text-anchor="middle" font-size="9" fill="#065f46">1</text>
  <text x="676" y="150" font-size="11" font-weight="600" fill="#1a1a1a">Market access secured</text>
  <text x="676" y="168" font-size="10" fill="#717171">Compliance without exclusion</text>

  <rect x="646" y="192" width="228" height="50" rx="6" fill="#ecfdf5"/>
  <circle cx="662" cy="211" r="6" fill="#047857" opacity="0.2"/>
  <text x="662" y="215" text-anchor="middle" font-size="9" fill="#065f46">2</text>
  <text x="676" y="210" font-size="11" font-weight="600" fill="#1a1a1a">IP protected at scale</text>
  <text x="676" y="228" font-size="10" fill="#717171">Sovereign sharing, machine-enforced</text>

  <rect x="646" y="252" width="228" height="50" rx="6" fill="#ecfdf5"/>
  <circle cx="662" cy="271" r="6" fill="#047857" opacity="0.2"/>
  <text x="662" y="275" text-anchor="middle" font-size="9" fill="#065f46">3</text>
  <text x="676" y="270" font-size="11" font-weight="600" fill="#1a1a1a">DSaaS as revenue</text>
  <text x="676" y="288" font-size="10" fill="#717171">New service category, recurring income</text>

  <rect x="646" y="312" width="228" height="50" rx="6" fill="#ecfdf5"/>
  <circle cx="662" cy="331" r="6" fill="#047857" opacity="0.2"/>
  <text x="662" y="335" text-anchor="middle" font-size="9" fill="#065f46">4</text>
  <text x="676" y="330" font-size="11" font-weight="600" fill="#1a1a1a">Plug-and-play onboarding</text>
  <text x="676" y="348" font-size="10" fill="#717171">SMEs participate in days, not months</text>

  <!-- Connecting lines between rows (subtle) -->
  <line x1="274" y1="157" x2="346" y2="157" stroke="#cbd5e1" stroke-width="0.5" stroke-dasharray="3,3" opacity="0.5"/>
  <line x1="574" y1="157" x2="646" y2="157" stroke="#cbd5e1" stroke-width="0.5" stroke-dasharray="3,3" opacity="0.5"/>
  <line x1="274" y1="217" x2="346" y2="217" stroke="#cbd5e1" stroke-width="0.5" stroke-dasharray="3,3" opacity="0.5"/>
  <line x1="574" y1="217" x2="646" y2="217" stroke="#cbd5e1" stroke-width="0.5" stroke-dasharray="3,3" opacity="0.5"/>
  <line x1="274" y1="277" x2="346" y2="277" stroke="#cbd5e1" stroke-width="0.5" stroke-dasharray="3,3" opacity="0.5"/>
  <line x1="574" y1="277" x2="646" y2="277" stroke="#cbd5e1" stroke-width="0.5" stroke-dasharray="3,3" opacity="0.5"/>
  <line x1="274" y1="337" x2="346" y2="337" stroke="#cbd5e1" stroke-width="0.5" stroke-dasharray="3,3" opacity="0.5"/>
  <line x1="574" y1="337" x2="646" y2="337" stroke="#cbd5e1" stroke-width="0.5" stroke-dasharray="3,3" opacity="0.5"/>

  <!-- Bottom bar -->
  <rect x="30" y="392" width="860" height="22" rx="4" fill="#e8f1f5"/>
  <text x="460" y="407" text-anchor="middle" font-size="10" font-weight="600" fill="#0e3d4f">Each problem maps to a proven approach—each approach delivers a measurable result</text>
</svg>